STARTFONT 2.1
FONT -WRI-Mathematica3Mono-Bold-R-Normal--32-320-75-75-M-190-Adobe-FontSpecific
SIZE 32 75 75
FONTBOUNDINGBOX 34 33 -1 -8
STARTPROPERTIES 16
FOUNDRY "WRI"
FAMILY_NAME "Mathematica3Mono"
WEIGHT_NAME "Bold"
SLANT "R"
SETWIDTH_NAME "Normal"
PIXEL_SIZE 32
POINT_SIZE 320
RESOLUTION_X 75
RESOLUTION_Y 75
SPACING "M"
AVERAGE_WIDTH 190
CHARSET_REGISTRY "Adobe"
CHARSET_ENCODING "FontSpecific"
FONT_DESCENT 8
FONT_ASCENT 25
DEFAULT_CHAR 32
ENDPROPERTIES
CHARS 224
STARTCHAR space
ENCODING 32
SWIDTH 263 0
DWIDTH 8 0
BBX 0 0 0 0
BITMAP
ENDCHAR
STARTCHAR Integral
ENCODING 33
SWIDTH 600 0
DWIDTH 19 0
BBX 18 27 1 -3
BITMAP
000f00
003f80
003f80
0079c0
007000
007000
00e000
00e000
00e000
00e000
00e000
00e000
00e000
00c000
01c000
01c000
01c000
01c000
01c000
01c000
01c000
038000
038000
e78000
7f0000
7f0000
3c0000
ENDCHAR
STARTCHAR ContourIntegral
ENCODING 34
SWIDTH 600 0
DWIDTH 19 0
BBX 18 27 1 -3
BITMAP
001e00
003f80
007f80
0073c0
00e100
00e000
00e000
03e000
07f000
0cd800
18cc00
31c600
31c600
31c600
31c600
31c600
198c00
0d9c00
07f000
03e000
038000
038000
038000
e70000
ff0000
7e0000
3c0000
ENDCHAR
STARTCHAR DblContInteg
ENCODING 35
SWIDTH 600 0
DWIDTH 19 0
BBX 20 26 -1 -2
BITMAP
0039e0
007ff0
00fbf0
00e720
01c700
01c700
01c700
03ff00
0fff80
1dcfc0
318e60
618e30
638e30
638e30
638e30
738c30
338c60
1f9dc0
0fff80
07ff00
071c00
071c00
073800
7ef800
fff000
3ce000
ENDCHAR
STARTCHAR CntrClckwContInteg
ENCODING 36
SWIDTH 600 0
DWIDTH 19 0
BBX 18 27 1 -3
BITMAP
001e00
003f80
007f80
0071c0
007000
00e000
00e000
03e000
07f800
0cfc00
18e400
30c600
31c600
31cf00
31df80
31d6c0
19cc00
0ddc00
07f800
03e000
038000
038000
038000
e78000
ff0000
7e0000
3c0000
ENDCHAR
STARTCHAR ClckwContInteg
ENCODING 37
SWIDTH 600 0
DWIDTH 19 0
BBX 18 27 0 -3
BITMAP
000f00
001f80
003fc0
0079c0
007000
007000
007000
01e000
07f800
0eec00
08e600
18e300
38e300
7ee300
dec300
18c300
09c600
0fcc00
07f800
01f000
01c000
01c000
038000
e38000
7f8000
7f0000
1e0000
ENDCHAR
STARTCHAR SquareContInteg
ENCODING 38
SWIDTH 600 0
DWIDTH 19 0
BBX 18 27 1 -3
BITMAP
001e00
003f80
007f80
0071c0
00e000
00e000
00e000
3ffe00
3ffe00
30c600
31c600
31c600
31c600
31c600
31c600
31c600
31c600
318600
3ffe00
3ffe00
038000
038000
038000
c70000
ff0000
7e0000
3c0000
ENDCHAR
STARTCHAR Intersection
ENCODING 39
SWIDTH 600 0
DWIDTH 19 0
BBX 16 18 2 0
BITMAP
07e0
1ff8
3ffc
7c3e
700e
e007
e007
e007
e007
e007
e007
e007
e007
e007
e007
e007
e007
e007
ENDCHAR
STARTCHAR Union
ENCODING 40
SWIDTH 600 0
DWIDTH 19 0
BBX 16 19 2 -1
BITMAP
e007
e007
e007
e007
e007
e007
e007
e007
e007
e007
e007
e007
e007
e007
700e
7c3e
3ffc
1ff8
07e0
ENDCHAR
STARTCHAR UnionPlus
ENCODING 41
SWIDTH 600 0
DWIDTH 19 0
BBX 16 19 2 -1
BITMAP
e007
e007
e007
e007
e007
e007
e187
e187
e187
eff7
eff7
e187
e187
e187
700e
7c3e
3ffc
1ff8
07e0
ENDCHAR
STARTCHAR SquareIntersection
ENCODING 42
SWIDTH 600 0
DWIDTH 19 0
BBX 16 18 2 0
BITMAP
ffff
ffff
ffff
e007
e007
e007
e007
e007
e007
e007
e007
e007
e007
e007
e007
e007
e007
e007
ENDCHAR
STARTCHAR SquareUnion
ENCODING 43
SWIDTH 600 0
DWIDTH 19 0
BBX 16 18 2 0
BITMAP
e007
e007
e007
e007
e007
e007
e007
e007
e007
e007
e007
e007
e007
e007
e007
ffff
ffff
ffff
ENDCHAR
STARTCHAR Wedge
ENCODING 44
SWIDTH 600 0
DWIDTH 19 0
BBX 18 18 1 0
BITMAP
00c000
00c000
01e000
01e000
03f000
03f000
073800
073800
0e1800
0e1c00
0e1c00
1c0e00
1c0e00
380700
380700
700380
700380
e001c0
ENDCHAR
STARTCHAR SmallWedge
ENCODING 45
SWIDTH 600 0
DWIDTH 19 0
BBX 15 10 2 2
BITMAP
0380
0380
07c0
0fe0
0ee0
1ef0
1c70
3838
783c
f01e
ENDCHAR
STARTCHAR Vee
ENCODING 46
SWIDTH 600 0
DWIDTH 19 0
BBX 18 18 1 0
BITMAP
e001c0
700380
700380
380700
380700
1c0e00
1c0e00
0e1c00
0e1c00
0e1800
073800
073800
03f000
03f000
01e000
01e000
00c000
00c000
ENDCHAR
STARTCHAR SmallVee
ENCODING 47
SWIDTH 600 0
DWIDTH 19 0
BBX 15 10 2 2
BITMAP
f01e
783c
3838
1c70
1ef0
0ee0
0fe0
07c0
0380
0380
ENDCHAR
STARTCHAR LTriangle
ENCODING 48
SWIDTH 600 0
DWIDTH 19 0
BBX 15 16 1 0
BITMAP
0002
000e
003e
007e
01fe
07ce
1f0e
fc0e
7c0e
1f0e
07ce
01fe
007e
003e
000e
0002
ENDCHAR
STARTCHAR LTriangleEqual
ENCODING 49
SWIDTH 600 0
DWIDTH 19 0
BBX 15 19 1 -1
BITMAP
0002
000e
003e
00fe
01fe
07ce
1f0e
fe0e
7e0e
1f8e
07ee
01fe
007e
001e
0006
0000
3ffe
3ffe
3ffe
ENDCHAR
STARTCHAR LTriangleBar
ENCODING 50
SWIDTH 600 0
DWIDTH 19 0
BBX 18 15 0 0
BITMAP
000400
001dc0
007dc0
00fdc0
03ddc0
0f9dc0
3e1dc0
f81dc0
3e1dc0
0f9dc0
03ddc0
00fdc0
007dc0
001dc0
000400
ENDCHAR
STARTCHAR NotLTriangle
ENCODING 51
SWIDTH 600 0
DWIDTH 19 0
BBX 15 24 1 -4
BITMAP
0030
0070
0070
0070
0066
006e
00fe
00fe
03fe
07ce
1fce
7dce
fdce
1fce
0fce
03ee
03fe
03be
030e
0306
0300
0700
0700
0600
ENDCHAR
STARTCHAR NotLTriangleEqual
ENCODING 52
SWIDTH 600 0
DWIDTH 19 0
BBX 14 24 3 -4
BITMAP
00e0
00e0
00c8
00f8
01f8
01f8
07d8
1f98
7f98
fb98
7f98
1f18
0f98
07f8
07f8
0778
0618
0604
fff8
fff8
fff8
0c00
1c00
1c00
ENDCHAR
STARTCHAR NotLTriangleBar
ENCODING 53
SWIDTH 600 0
DWIDTH 19 0
BBX 18 22 0 -4
BITMAP
003000
007000
007000
007400
006dc0
00fdc0
00fdc0
03fdc0
07ddc0
1fddc0
7dddc0
fdddc0
1f9dc0
0f9dc0
03fdc0
03fdc0
03bdc0
031dc0
030400
070000
070000
060000
ENDCHAR
STARTCHAR Bar
ENCODING 54
SWIDTH 600 0
DWIDTH 19 0
BBX 3 18 8 0
BITMAP
e0
e0
e0
e0
e0
e0
e0
e0
e0
e0
e0
e0
e0
e0
e0
e0
e0
e0
ENDCHAR
STARTCHAR Parallel
ENCODING 55
SWIDTH 600 0
DWIDTH 19 0
BBX 9 18 5 0
BITMAP
e380
e380
e380
e380
e380
e380
e380
e380
e380
e380
e380
e380
e380
e380
e380
e380
e380
e380
ENDCHAR
STARTCHAR TrplBar
ENCODING 56
SWIDTH 600 0
DWIDTH 19 0
BBX 15 18 2 0
BITMAP
e38e
e38e
e38e
e38e
e38e
e38e
e38e
e38e
e38e
e38e
e38e
e38e
e38e
e38e
e38e
e38e
e38e
e38e
ENDCHAR
STARTCHAR ShortBar
ENCODING 57
SWIDTH 600 0
DWIDTH 19 0
BBX 3 14 8 0
BITMAP
e0
e0
e0
e0
e0
e0
e0
e0
e0
e0
e0
e0
e0
e0
ENDCHAR
STARTCHAR ShortParallelBar
ENCODING 58
SWIDTH 600 0
DWIDTH 19 0
BBX 9 14 5 0
BITMAP
e380
e380
e380
e380
e380
e380
e380
e380
e380
e380
e380
e380
e380
e380
ENDCHAR
STARTCHAR BarExt
ENCODING 59
SWIDTH 600 0
DWIDTH 19 0
BBX 3 6 8 0
BITMAP
e0
e0
e0
e0
e0
e0
ENDCHAR
STARTCHAR Tangental
ENCODING 60
SWIDTH 600 0
DWIDTH 19 0
BBX 15 18 2 0
BITMAP
070e
071c
071c
0e1c
0e18
0e38
0c38
1c38
1c70
1c70
3870
3860
38e0
30e0
70e0
71c0
71c0
e1c0
ENDCHAR
STARTCHAR NotTildeFullEqual
ENCODING 61
SWIDTH 600 0
DWIDTH 19 0
BBX 14 20 2 -3
BITMAP
00c0
00c0
01c0
1dd0
7f9c
7ff8
e3f8
23e0
0380
7ff8
7ff8
7ff8
0700
7ff8
7ff8
7ff8
0e00
0c00
0c00
0c00
ENDCHAR
STARTCHAR TildeEqual
ENCODING 62
SWIDTH 600 0
DWIDTH 19 0
BBX 14 10 2 3
BITMAP
1c08
3e18
7f1c
f7f8
61f0
20e0
0000
7ff8
7ff8
7ff8
ENDCHAR
STARTCHAR EqualTilde
ENCODING 63
SWIDTH 600 0
DWIDTH 19 0
BBX 14 9 2 2
BITMAP
7ff8
7ff8
7ff8
0000
1c10
7f1c
7ff8
e3f8
20e0
ENDCHAR
STARTCHAR RTriangle
ENCODING 64
SWIDTH 600 0
DWIDTH 19 0
BBX 15 16 3 0
BITMAP
8000
e000
f800
fc00
ff00
e7c0
e1f0
e07e
e07c
e1f0
e7c0
ff00
fc00
f800
e000
8000
ENDCHAR
STARTCHAR RTriangleEqual
ENCODING 65
SWIDTH 600 0
DWIDTH 19 0
BBX 15 19 3 -1
BITMAP
8000
e000
f800
fe00
ff00
e7c0
e1f0
e0fe
e0fc
e3f0
efc0
ff00
fc00
f000
c000
0000
fff8
fff8
fff8
ENDCHAR
STARTCHAR RTriangleBar
ENCODING 66
SWIDTH 600 0
DWIDTH 19 0
BBX 18 15 1 0
BITMAP
040000
e70000
e78000
e7e000
e77800
e73e00
e70f00
e703c0
e70f00
e73e00
e77800
e7e000
e78000
e70000
040000
ENDCHAR
STARTCHAR NotRTriangle
ENCODING 67
SWIDTH 600 0
DWIDTH 19 0
BBX 15 24 3 -4
BITMAP
01c0
01c0
0180
0180
8380
e380
fb80
ff00
ff80
e7c0
e7f0
e77c
e67e
e7f0
efe0
ef80
fe00
fc00
fc00
dc00
1c00
1800
1800
3800
ENDCHAR
STARTCHAR NotRTriangleEqual
ENCODING 68
SWIDTH 600 0
DWIDTH 19 0
BBX 13 24 3 -4
BITMAP
0380
0380
8380
e300
fb00
ff00
df00
c7c0
c7f0
cef8
cff0
cfc0
cf80
fe00
fc00
fc00
dc00
9800
fff8
fff8
fff8
3000
3000
7000
ENDCHAR
STARTCHAR NotRTriangleBar
ENCODING 69
SWIDTH 600 0
DWIDTH 19 0
BBX 18 22 1 -4
BITMAP
001c00
001800
001800
041800
e63800
e7b800
e7f000
e7f000
e73c00
e77f00
e77780
e767c0
e77f00
e77c00
e7f800
e7e000
e7c000
e7c000
05c000
01c000
018000
018000
ENDCHAR
STARTCHAR NotBar
ENCODING 70
SWIDTH 600 0
DWIDTH 19 0
BBX 14 18 2 0
BITMAP
0380
0380
0380
039c
03b8
03f0
03e0
03e0
03c0
0780
0780
0f80
1f80
3b80
7380
8380
0380
0380
ENDCHAR
STARTCHAR NotParallelBar
ENCODING 71
SWIDTH 600 0
DWIDTH 19 0
BBX 19 18 0 0
BITMAP
071ce0
071dc0
071f80
071f00
071e00
071c00
073c00
077c00
07fc00
07fc00
07dc00
079c00
071c00
0f1c00
1f1c00
3f1c00
771c00
e71c00
ENDCHAR
STARTCHAR NotTrplBar
ENCODING 72
SWIDTH 600 0
DWIDTH 19 0
BBX 19 18 0 0
BITMAP
38e3e0
38e3c0
38e380
38e780
38ef80
38ff80
38fb80
38fb80
38f380
39e380
3be380
3be380
3fe380
3ee380
3ce380
38e380
78e380
f8e380
ENDCHAR
STARTCHAR ShortNotBar
ENCODING 73
SWIDTH 600 0
DWIDTH 19 0
BBX 13 14 3 0
BITMAP
0700
0708
0770
07e0
07c0
07c0
0780
0f00
1f00
1f00
3f00
7700
8700
0700
ENDCHAR
STARTCHAR ShortNotParallelBar
ENCODING 74
SWIDTH 600 0
DWIDTH 19 0
BBX 15 14 2 0
BITMAP
1c7e
1c7c
1c78
1c70
1cf0
1df0
1ff0
1ff0
1f70
1e70
1c70
3c70
7c70
fc70
ENDCHAR
STARTCHAR ParallelExt
ENCODING 75
SWIDTH 600 0
DWIDTH 19 0
BBX 9 6 5 0
BITMAP
e380
e380
e380
e380
e380
e380
ENDCHAR
STARTCHAR NotTilde
ENCODING 76
SWIDTH 600 0
DWIDTH 19 0
BBX 14 16 2 -1
BITMAP
00c0
01c0
0180
0180
0180
1f90
7f1c
7ff8
e3f8
27e0
0700
0600
0600
0e00
0e00
0c00
ENDCHAR
STARTCHAR NotTildeTilde
ENCODING 77
SWIDTH 600 0
DWIDTH 19 0
BBX 14 18 2 -2
BITMAP
00c0
00c0
01c0
1dd0
3f98
7fbc
e7f8
63f0
23e0
1f08
3f18
7f1c
77f8
e7f0
2ee0
0e00
0c00
0c00
ENDCHAR
STARTCHAR NotTildeEqual
ENCODING 78
SWIDTH 600 0
DWIDTH 19 0
BBX 14 18 2 -2
BITMAP
00c0
00c0
01c0
1dc8
3f98
7f9c
f7f8
63f0
23e0
0300
7ff8
7ff8
7ff8
0600
0e00
0e00
0c00
0c00
ENDCHAR
STARTCHAR NotEqualTilde
ENCODING 79
SWIDTH 600 0
DWIDTH 19 0
BBX 14 18 3 -2
BITMAP
00c0
00c0
01c0
01c0
0180
7ff8
7ff8
7ff8
0300
1f08
3f18
7f3c
f7f8
67f0
2ee0
0e00
0c00
1c00
ENDCHAR
STARTCHAR HumpEqual
ENCODING 80
SWIDTH 600 0
DWIDTH 19 0
BBX 13 11 3 3
BITMAP
0780
0fc0
1fc0
fcf8
fcf8
fcf8
0000
0000
fff8
fff8
fff8
ENDCHAR
STARTCHAR HumpDownHump
ENCODING 81
SWIDTH 600 0
DWIDTH 19 0
BBX 13 14 3 0
BITMAP
0780
1fc0
1fc0
f8f8
f8f8
f8f8
0000
0000
f8f8
f8f8
f8f8
1fc0
1fc0
0f80
ENDCHAR
STARTCHAR NotHumpEqual
ENCODING 82
SWIDTH 600 0
DWIDTH 19 0
BBX 13 22 3 -4
BITMAP
0060
00e0
00e0
00c0
0fc0
1f80
1fc0
fbf8
fbf8
fff8
0700
0600
fff8
fff8
fff8
1c00
1800
1800
3800
3000
3000
7000
ENDCHAR
STARTCHAR NotHumpDownHump
ENCODING 83
SWIDTH 600 0
DWIDTH 19 0
BBX 13 22 3 -4
BITMAP
0070
0060
0060
00e0
07c0
1fc0
1fc0
f9f8
fbf8
fbf8
0700
0700
fef8
fef8
fcf8
1fc0
1fc0
1f80
3800
3000
3000
7000
ENDCHAR
STARTCHAR NotCongruent
ENCODING 84
SWIDTH 600 0
DWIDTH 19 0
BBX 13 22 3 -4
BITMAP
0070
0060
00e0
00c0
fff8
fff8
fff8
0380
0380
0300
fff8
fff8
fff8
0e00
fff8
fff8
fff8
1800
1800
3800
3000
7000
ENDCHAR
STARTCHAR DotEqual
ENCODING 85
SWIDTH 600 0
DWIDTH 19 0
BBX 12 14 4 3
BITMAP
0600
0f00
0f00
0600
0000
0000
fff0
fff0
fff0
0000
0000
fff0
fff0
fff0
ENDCHAR
STARTCHAR RoundImplies
ENCODING 86
SWIDTH 600 0
DWIDTH 19 0
BBX 14 9 3 2
BITMAP
fff0
fff8
fffc
001c
001c
003c
fffc
fff8
ffe0
ENDCHAR
STARTCHAR Equal
ENCODING 87
SWIDTH 338 0
DWIDTH 11 0
BBX 9 8 1 3
BITMAP
ff80
ff80
ff80
0000
0000
ff80
ff80
ff80
ENDCHAR
STARTCHAR TrplEqual
ENCODING 88
SWIDTH 1128 0
DWIDTH 36 0
BBX 30 8 3 3
BITMAP
ff9ff7fc
ff9ff7fc
ff9ff7fc
00000000
00000000
ff9ff7fc
ff9ff7fc
ff9ff7fc
ENDCHAR
STARTCHAR FrownEqual
ENCODING 89
SWIDTH 600 0
DWIDTH 19 0
BBX 13 10 3 3
BITMAP
0f80
3fe0
fff8
e038
8008
0000
0000
fff8
fff8
fff8
ENDCHAR
STARTCHAR SmileEqual
ENCODING 90
SWIDTH 600 0
DWIDTH 19 0
BBX 13 10 3 1
BITMAP
fff8
fff8
fff8
0000
0000
8008
e038
fff8
3fe0
0f80
ENDCHAR
STARTCHAR Frown
ENCODING 91
SWIDTH 600 0
DWIDTH 19 0
BBX 13 5 3 4
BITMAP
0f80
7ff0
fff8
e038
8008
ENDCHAR
STARTCHAR Smile
ENCODING 92
SWIDTH 600 0
DWIDTH 19 0
BBX 13 6 3 4
BITMAP
8008
c018
f078
fff8
3fe0
0f80
ENDCHAR
STARTCHAR FrownSmile
ENCODING 93
SWIDTH 600 0
DWIDTH 19 0
BBX 13 12 3 1
BITMAP
0f80
3fe0
fff8
e038
8008
0000
0000
8008
e038
fff8
3fe0
0f80
ENDCHAR
STARTCHAR SmileFrown
ENCODING 94
SWIDTH 600 0
DWIDTH 19 0
BBX 13 13 3 0
BITMAP
8008
e038
fff8
7ff0
0f80
0000
0000
0f80
7ff0
fff8
f078
c018
8008
ENDCHAR
STARTCHAR NotSmileFrown
ENCODING 95
SWIDTH 600 0
DWIDTH 19 0
BBX 13 22 3 -4
BITMAP
00c0
01c0
01c0
0180
0180
8388
e3b8
fff8
7ff0
1fc0
0700
0700
0f00
3fe0
fff8
fe78
ce18
0c00
0c00
1c00
1c00
1800
ENDCHAR
STARTCHAR LessLess
ENCODING 96
SWIDTH 600 0
DWIDTH 19 0
BBX 19 18 0 -2
BITMAP
001020
003060
00f0e0
01e3e0
03c780
078f00
1f1e00
3c7800
f8f000
78f000
3c7800
1f1e00
078f00
03c780
01e3e0
00f0e0
003060
001020
ENDCHAR
STARTCHAR DblLess
ENCODING 97
SWIDTH 600 0
DWIDTH 19 0
BBX 16 20 1 -3
BITMAP
0001
0007
000f
003e
007c
01f1
03c7
0f8f
1e3e
fcf8
7c78
1e3e
0f8f
03c7
01f1
007c
003e
000f
0007
0001
ENDCHAR
STARTCHAR LessSlantEqual
ENCODING 98
SWIDTH 600 0
DWIDTH 19 0
BBX 15 18 2 0
BITMAP
0004
001c
007c
01f0
07c0
1f00
fc00
3e00
0f80
43e0
70f8
7c3c
1f0c
07c2
01f0
007c
001c
0004
ENDCHAR
STARTCHAR LessFullEqual
ENCODING 99
SWIDTH 600 0
DWIDTH 19 0
BBX 14 21 2 -2
BITMAP
0004
001c
007c
01f8
07e0
1f80
fe00
7e00
1f80
07e0
01f8
007c
001c
0004
7ffc
7ffc
7ffc
0000
7ffc
7ffc
7ffc
ENDCHAR
STARTCHAR LessTilde
ENCODING 100
SWIDTH 600 0
DWIDTH 19 0
BBX 14 20 3 -2
BITMAP
0008
0038
00f8
03f0
0fc0
3f00
fc00
f800
3e00
0f80
03e0
00f8
0038
0008
3800
7e10
ff3c
e7f8
43f0
00e0
ENDCHAR
STARTCHAR NotLess
ENCODING 101
SWIDTH 600 0
DWIDTH 19 0
BBX 15 23 2 -4
BITMAP
0070
0070
0060
0064
006c
00fc
00fc
01f0
07c0
0fc0
3fc0
fdc0
7d80
1f80
0f80
03e0
03f0
037c
033c
070c
0702
0700
0600
ENDCHAR
STARTCHAR NotLessLess
ENCODING 102
SWIDTH 600 0
DWIDTH 19 0
BBX 20 23 0 -4
BITMAP
001c00
001c00
001800
001820
003860
0078e0
01f3e0
03f780
07bf00
1f7e00
3c7800
f8f000
78f000
3cfc00
0ffe00
07ef00
03c7c0
01f1e0
01f0e0
01f060
01d010
018000
018000
ENDCHAR
STARTCHAR NotDblLess
ENCODING 103
SWIDTH 600 0
DWIDTH 19 0
BBX 16 23 1 -4
BITMAP
0030
0070
0073
0077
007f
007e
00f8
01f1
07c7
0fcf
3efe
f9f8
7df8
1fbe
0f8f
03c7
03f1
03f8
033e
030f
0707
0701
0700
ENDCHAR
STARTCHAR NotLessEqual
ENCODING 104
SWIDTH 600 0
DWIDTH 19 0
BBX 14 23 2 -4
BITMAP
0060
0060
00ec
00fc
00fc
03f0
0fc0
3fc0
fdc0
3f80
0f80
03e0
03f8
03fc
031c
0304
7ffc
7ffc
7ffc
0600
0600
0600
0e00
ENDCHAR
STARTCHAR NotLessSlantEqual
ENCODING 105
SWIDTH 600 0
DWIDTH 19 0
BBX 15 23 2 -3
BITMAP
0060
00e0
00ec
00fc
00fc
03f0
07c0
1fc0
fd80
3f80
1f80
47e0
73f8
7f7c
3f1c
0f84
07e0
06f8
063c
060c
0e02
0e00
0c00
ENDCHAR
STARTCHAR NotLessFullEqual
ENCODING 106
SWIDTH 600 0
DWIDTH 19 0
BBX 14 25 2 -5
BITMAP
0060
00e0
00ec
00fc
00fc
03f0
0fc0
3fc0
ff80
1f80
07e0
03f8
03fc
039c
0304
7ffc
7ffc
7ffc
0700
7ffc
7ffc
7ffc
0e00
0e00
0c00
ENDCHAR
STARTCHAR NotLessTilde
ENCODING 107
SWIDTH 600 0
DWIDTH 19 0
BBX 14 23 3 -4
BITMAP
00e0
00e4
00d8
00f8
01f0
07c0
1f80
7d80
fb80
3f80
0f80
03e0
03f8
0738
0708
3f00
7e10
ff3c
eff8
4ff0
0ee0
0c00
1c00
ENDCHAR
STARTCHAR SquareSubset
ENCODING 108
SWIDTH 600 0
DWIDTH 19 0
BBX 13 14 3 0
BITMAP
fff8
fff8
fff8
e000
e000
e000
e000
e000
e000
e000
e000
fff8
fff8
fff8
ENDCHAR
STARTCHAR SquareSubsetEqual
ENCODING 109
SWIDTH 600 0
DWIDTH 19 0
BBX 13 18 3 -2
BITMAP
fff8
fff8
fff8
e000
e000
e000
e000
e000
e000
e000
fff8
fff8
fff8
0000
0000
fff8
fff8
fff8
ENDCHAR
STARTCHAR NotSquareSubset
ENCODING 110
SWIDTH 600 0
DWIDTH 19 0
BBX 13 22 3 -4
BITMAP
01c0
01c0
01c0
0180
fff8
fff8
fff8
e380
e300
e300
e700
e700
e600
e600
e600
fff8
fff8
fff8
0c00
0c00
1c00
1c00
ENDCHAR
STARTCHAR NotSquareSubsetEqual
ENCODING 111
SWIDTH 600 0
DWIDTH 19 0
BBX 13 24 3 -5
BITMAP
00c0
00c0
01c0
fff8
fff8
fff8
e180
e380
e380
e300
e300
e700
e700
fff8
fff8
fff8
0e00
0e00
fff8
fff8
fff8
1c00
1c00
1800
ENDCHAR
STARTCHAR GrtrGrtr
ENCODING 112
SWIDTH 600 0
DWIDTH 19 0
BBX 19 18 0 -2
BITMAP
810000
c18000
e1e000
f8f000
3c7800
1e3c00
0f1f00
03c780
01e3e0
01e3c0
03c780
0f1f00
1e3c00
3c7800
f8f000
e1e000
c18000
810000
ENDCHAR
STARTCHAR DblGrtr
ENCODING 113
SWIDTH 600 0
DWIDTH 19 0
BBX 16 20 2 -3
BITMAP
8000
e000
f000
7c00
3e00
8f80
e3c0
f1f0
7c78
1f3f
1e3e
7c78
f1f0
e3c0
8f80
3e00
7c00
f000
e000
8000
ENDCHAR
STARTCHAR GrtrSlantEqual
ENCODING 114
SWIDTH 600 0
DWIDTH 19 0
BBX 14 18 3 0
BITMAP
8000
e000
f800
3e00
0f80
03e0
00fc
01f0
07c0
1f08
7c38
f0f8
c3e0
8f80
3e00
f800
e000
8000
ENDCHAR
STARTCHAR GrtrFullEqual
ENCODING 115
SWIDTH 600 0
DWIDTH 19 0
BBX 14 21 3 -2
BITMAP
8000
e000
f800
7e00
1f80
07e0
01fc
01f8
07e0
1f80
7e00
f800
e000
8000
fff8
fff8
fff8
0000
fff8
fff8
fff8
ENDCHAR
STARTCHAR GrtrTilde
ENCODING 116
SWIDTH 600 0
DWIDTH 19 0
BBX 14 20 2 -2
BITMAP
4000
7000
7c00
3f00
0fc0
03f0
00fc
007c
01f0
07c0
1f00
7c00
7000
4000
1c00
7f08
7f9c
f3fc
21f8
00f0
ENDCHAR
STARTCHAR NotGrtr
ENCODING 117
SWIDTH 600 0
DWIDTH 19 0
BBX 14 23 3 -4
BITMAP
0180
0180
0380
8380
c300
f300
fb00
3f00
0f80
07c0
07f0
06fc
0ef8
0fe0
0fc0
1f00
3e00
fc00
fc00
d800
9800
3800
3800
ENDCHAR
STARTCHAR NotGrtrGrtr
ENCODING 118
SWIDTH 600 0
DWIDTH 19 0
BBX 19 23 0 -4
BITMAP
003800
003800
003000
813000
c1b000
e1f000
f8f000
3c7800
1e7c00
0fff00
03e780
01e3e0
01e3c0
07c780
0fde00
1ffc00
7df800
f1f000
e1c000
c38000
838000
038000
030000
ENDCHAR
STARTCHAR NotDblGrtr
ENCODING 119
SWIDTH 600 0
DWIDTH 19 0
BBX 16 24 2 -5
BITMAP
0060
00e0
c0e0
e0c0
f8c0
7cc0
1fc0
8fc0
e3e0
f1f0
7dfc
1fbe
1fbf
7f7c
f3f0
e7e0
8f80
1f00
7e00
fe00
ee00
ce00
8e00
0c00
ENDCHAR
STARTCHAR NotGrtrEqual
ENCODING 120
SWIDTH 600 0
DWIDTH 19 0
BBX 14 23 3 -4
BITMAP
0380
0380
c300
f300
ff00
3f00
0fc0
07f0
06fc
0ff0
0fc0
1f00
7c00
fc00
fc00
9c00
fff8
fff8
fff8
3800
3800
3000
3000
ENDCHAR
STARTCHAR NotGrtrSlantEqual
ENCODING 121
SWIDTH 600 0
DWIDTH 19 0
BBX 14 23 3 -4
BITMAP
0380
c300
e300
fb00
3f00
0f80
07e0
06fc
06f8
0fe0
0f88
3e18
fc78
fdf0
9fc0
1f00
7c00
f800
f800
b800
3800
3000
3000
ENDCHAR
STARTCHAR NotGrtrFullEqual
ENCODING 122
SWIDTH 600 0
DWIDTH 19 0
BBX 14 25 3 -5
BITMAP
00c0
00c0
c1c0
f1c0
fd80
3f80
0fc0
03f0
03fc
07e0
1f80
7f00
ff00
e700
8600
fff8
fff8
fff8
0e00
fff8
fff8
fff8
1c00
1c00
1c00
ENDCHAR
STARTCHAR NotGrtrTilde
ENCODING 123
SWIDTH 600 0
DWIDTH 19 0
BBX 14 23 2 -4
BITMAP
0070
4060
60e0
78e0
3ee0
0fc0
03e0
01f8
01fc
01f0
07c0
1f80
7f80
7380
4300
1f00
7f08
7f9c
f7fc
27f8
06f0
0e00
0e00
ENDCHAR
STARTCHAR SquareSprset
ENCODING 124
SWIDTH 600 0
DWIDTH 19 0
BBX 13 14 3 0
BITMAP
fff8
fff8
fff8
0038
0038
0038
0038
0038
0038
0038
0038
fff8
fff8
fff8
ENDCHAR
STARTCHAR SquareSprsetEqual
ENCODING 125
SWIDTH 600 0
DWIDTH 19 0
BBX 13 18 3 -2
BITMAP
fff8
fff8
fff8
0038
0038
0038
0038
0038
0038
0038
fff8
fff8
fff8
0000
0000
fff8
fff8
fff8
ENDCHAR
STARTCHAR NotSquareSprset
ENCODING 126
SWIDTH 600 0
DWIDTH 19 0
BBX 13 22 3 -4
BITMAP
01c0
01c0
0180
0180
fff8
fff8
fff8
0338
0338
0338
0738
0738
0638
0638
0e38
fff8
fff8
fff8
0c00
1c00
1c00
1c00
ENDCHAR
STARTCHAR DEL
ENCODING 127
SWIDTH 263 0
DWIDTH 8 0
BBX 0 0 0 0
BITMAP
ENDCHAR
STARTCHAR Prcds
ENCODING 128
SWIDTH 600 0
DWIDTH 19 0
BBX 14 20 2 -3
BITMAP
0004
0004
000c
001c
003c
00f8
01f0
07e0
1f80
fe00
fe00
1f80
07e0
01f0
00f8
003c
001c
000c
0004
0004
ENDCHAR
STARTCHAR PrcdsEqual
ENCODING 129
SWIDTH 600 0
DWIDTH 19 0
BBX 14 18 3 0
BITMAP
0008
0018
0038
0078
01f0
07c0
3f00
fc00
1f80
07c0
01f0
0078
0038
0008
0004
7ff8
7ff8
7ff8
ENDCHAR
STARTCHAR PrcdsSlantEqual
ENCODING 130
SWIDTH 600 0
DWIDTH 19 0
BBX 13 21 3 -3
BITMAP
0008
0018
0038
0078
01f0
07c0
1f80
fe00
3f00
07c0
41e0
78f0
7e38
1f18
0788
01e0
00f0
0078
0038
0018
0008
ENDCHAR
STARTCHAR PrcdsTilde
ENCODING 131
SWIDTH 600 0
DWIDTH 19 0
BBX 13 20 3 -2
BITMAP
0008
0018
0038
0070
01e0
07c0
3f00
fc00
1f80
03c0
01f0
0078
0038
0018
3808
7e10
7f38
e7f8
43f0
00e0
ENDCHAR
STARTCHAR NotPrcds
ENCODING 132
SWIDTH 600 0
DWIDTH 19 0
BBX 15 21 2 -3
BITMAP
01c0
0182
0184
018c
039c
03bc
03f8
03f0
07c0
1f80
ff00
7f00
0f80
0fe0
0ff0
0c78
0c3c
1c1c
1c0c
1c04
1800
ENDCHAR
STARTCHAR NotPrcdsEqual
ENCODING 133
SWIDTH 600 0
DWIDTH 19 0
BBX 15 22 2 -3
BITMAP
01c2
0184
018c
03bc
03f8
03f0
07c0
3f00
ff00
0fc0
07e0
06f8
0e3c
0e1c
0e0c
0c04
7ffc
7ffc
7ffc
1800
1800
3800
ENDCHAR
STARTCHAR NotPrcdsSlantEqual
ENCODING 134
SWIDTH 600 0
DWIDTH 19 0
BBX 15 23 2 -3
BITMAP
00c0
00c2
01c4
01dc
01bc
01f8
03f0
0fc0
7f80
ff00
0fc0
07e0
77f8
7f3c
3f1c
07cc
0fe4
0ef0
0c78
0c1c
0c0c
1c04
1c00
ENDCHAR
STARTCHAR NotPrcdsTilde
ENCODING 135
SWIDTH 600 0
DWIDTH 19 0
BBX 14 23 2 -3
BITMAP
00e0
00c4
00c8
01d8
01f8
01f0
03e0
0fc0
ff80
7f80
0fc0
03e0
03f8
0738
0718
0708
1e04
7e18
7f1c
fff8
6ff8
0ce0
0c00
ENDCHAR
STARTCHAR LessGrtr
ENCODING 136
SWIDTH 600 0
DWIDTH 19 0
BBX 15 22 2 -4
BITMAP
0004
001c
007c
03f8
0fc0
3f00
fc00
1f00
07e0
41f8
707c
7c1c
3f04
0fc0
01f0
007e
01f8
07e0
3f80
7c00
7000
4000
ENDCHAR
STARTCHAR NotLessGrtr
ENCODING 137
SWIDTH 600 0
DWIDTH 19 0
BBX 15 26 2 -6
BITMAP
0060
00e0
00ec
00fc
00fc
03f0
0fc0
3fc0
ffc0
1f80
07e0
43f8
73fc
7f9c
3f04
0fc0
03f0
077e
07f8
07e0
1f80
7e00
7e00
6e00
0c00
0c00
ENDCHAR
STARTCHAR LessEqualGrtr
ENCODING 138
SWIDTH 600 0
DWIDTH 19 0
BBX 14 30 3 -8
BITMAP
0008
0038
01f8
07e0
1f80
7e00
fc00
3f00
0fc0
03f0
0078
0018
0004
fff8
fff8
fff8
0000
c000
f000
fc00
3f00
0fc0
03f0
00fc
07e0
1f80
7e00
f800
e000
8000
ENDCHAR
STARTCHAR Because
ENCODING 139
SWIDTH 600 0
DWIDTH 19 0
BBX 17 15 1 0
BITMAP
380f00
fc1f80
fc1f80
fc1f80
fc1f80
380f00
000000
000000
000000
01c000
03f000
03f000
03f000
03e000
01c000
ENDCHAR
STARTCHAR NotSquareSprsetEqual
ENCODING 140
SWIDTH 600 0
DWIDTH 19 0
BBX 13 24 3 -5
BITMAP
00c0
01c0
01c0
fff8
fff8
fff8
03b8
03b8
0338
0338
0738
0738
0638
fff8
fff8
fff8
0e00
0c00
fff8
fff8
fff8
1c00
1800
1800
ENDCHAR
STARTCHAR NotSubsetEqual
ENCODING 141
SWIDTH 600 0
DWIDTH 19 0
BBX 13 25 3 -5
BITMAP
00e0
00c0
00c0
07f8
1ff8
3ff8
79c0
7180
e180
e180
e380
e380
e300
7300
7b00
3ff8
1ff8
07f8
0600
7ff8
7ff8
7ff8
0c00
0c00
0c00
ENDCHAR
STARTCHAR NotSprset
ENCODING 142
SWIDTH 600 0
DWIDTH 19 0
BBX 14 22 3 -3
BITMAP
01c0
01c0
01c0
ff80
ffe0
fff0
03f8
03b8
033c
031c
071c
071c
061c
063c
0638
0ef8
fff0
ffe0
ff80
1c00
1c00
1c00
ENDCHAR
STARTCHAR NotSprsetEqual
ENCODING 143
SWIDTH 600 0
DWIDTH 19 0
BBX 14 25 3 -5
BITMAP
01c0
01c0
01c0
ff80
ffe0
fff0
03f8
03b8
031c
031c
071c
071c
061c
0638
0ef8
fff0
ffe0
ff80
0c00
fff8
fff8
fff8
1800
1800
3800
ENDCHAR
STARTCHAR Succds
ENCODING 144
SWIDTH 600 0
DWIDTH 19 0
BBX 14 20 3 -3
BITMAP
8000
8000
c000
e000
f000
7c00
3e00
1f80
07e0
01fc
01fc
07e0
1f80
3e00
7c00
f000
e000
c000
8000
8000
ENDCHAR
STARTCHAR SuccdsEqual
ENCODING 145
SWIDTH 600 0
DWIDTH 19 0
BBX 14 18 3 0
BITMAP
8000
c000
e000
7800
3e00
1f80
07f0
00fc
07e0
1f00
3c00
f800
e000
c000
8000
fff8
fff8
fff8
ENDCHAR
STARTCHAR SuccdsSlantEqual
ENCODING 146
SWIDTH 600 0
DWIDTH 19 0
BBX 14 21 3 -3
BITMAP
8000
c000
e000
f800
3c00
1f00
07e0
01fc
03f0
0f80
3e08
7878
f1f8
c3e0
8f80
1e00
3c00
7000
e000
c000
8000
ENDCHAR
STARTCHAR SuccdsTilde
ENCODING 147
SWIDTH 600 0
DWIDTH 19 0
BBX 14 20 3 -2
BITMAP
8000
c000
e000
f800
3e00
1f80
03f0
01fc
07e0
1f00
7c00
f000
e000
c000
bc00
7e08
ff9c
e3f8
41f8
00f0
ENDCHAR
STARTCHAR NotSuccds
ENCODING 148
SWIDTH 600 0
DWIDTH 19 0
BBX 14 21 3 -3
BITMAP
00e0
80e0
80c0
c0c0
e1c0
f1c0
7dc0
3f80
0f80
07e0
03fc
03f8
07c0
1f00
3f00
7f00
f600
e600
ce00
8e00
0c00
ENDCHAR
STARTCHAR NotSuccdsEqual
ENCODING 149
SWIDTH 600 0
DWIDTH 19 0
BBX 14 22 3 -3
BITMAP
80c0
80c0
c1c0
f1c0
79c0
3f80
0f80
03f0
03fc
0fc0
1f00
7f00
f700
e700
c600
8600
fff8
fff8
fff8
0c00
1c00
1c00
ENDCHAR
STARTCHAR NotSuccdsSlantEqual
ENCODING 150
SWIDTH 600 0
DWIDTH 19 0
BBX 14 23 3 -3
BITMAP
00e0
80e0
80e0
e0c0
f0c0
79c0
3fc0
0fc0
03f8
03fc
0fc0
3f80
7f38
f3f8
e3f0
cf80
9f00
3e00
7e00
ee00
ce00
8e00
0c00
ENDCHAR
STARTCHAR NotSuccdsTilde
ENCODING 151
SWIDTH 600 0
DWIDTH 19 0
BBX 14 23 2 -3
BITMAP
00e0
40c0
40c0
61c0
71c0
7dc0
1f80
0fc0
03fc
03f8
0fc0
1f00
7f00
7700
6700
4600
5e00
7e18
7f1c
eff8
6df8
0ce0
1c00
ENDCHAR
STARTCHAR GrtrLess
ENCODING 152
SWIDTH 600 0
DWIDTH 19 0
BBX 15 22 2 -4
BITMAP
4000
7000
7c00
3f80
07e0
01f8
007e
01f0
0fc0
3f04
7c1c
707c
41f8
07e0
1f00
fc00
3f00
0fc0
03f8
007c
001c
0004
ENDCHAR
STARTCHAR NotGrtrLess
ENCODING 153
SWIDTH 600 0
DWIDTH 19 0
BBX 15 26 2 -6
BITMAP
0060
00e0
60e0
78e0
7ec0
1fc0
07e0
01f8
01fe
03f0
0fc0
3f84
7f9c
73fc
43f8
07e0
1f00
ff00
3f00
0fc0
07f0
06fc
0e3c
0e0c
0c00
0c00
ENDCHAR
STARTCHAR GrtrEqualLess
ENCODING 154
SWIDTH 600 0
DWIDTH 19 0
BBX 14 30 2 -8
BITMAP
4000
7000
7e00
1f80
07e0
01f8
00fc
03f0
0fc0
3f00
7800
6000
4000
7ffc
7ffc
7ffc
0000
000c
003c
00fc
03f0
0fc0
3f00
fc00
1f80
07e0
01f8
007c
001c
0004
ENDCHAR
STARTCHAR Proportion
ENCODING 155
SWIDTH 600 0
DWIDTH 19 0
BBX 17 15 1 0
BITMAP
780f00
fc1f80
fc1f80
fc1f80
fc1f80
780f00
000000
000000
000000
780f00
fc1f80
fc1f80
fc1f80
fc1f80
780f00
ENDCHAR
STARTCHAR Member
ENCODING 156
SWIDTH 600 0
DWIDTH 19 0
BBX 14 16 3 0
BITMAP
ff80
ffe0
fff0
00f0
0078
0038
001c
fffc
fffc
fffc
0018
0038
00f8
fff0
ffe0
ff80
ENDCHAR
STARTCHAR NotMember
ENCODING 157
SWIDTH 600 0
DWIDTH 19 0
BBX 14 22 3 -3
BITMAP
01c0
01c0
01c0
ff80
ffc0
ffe0
03f0
03b8
0338
031c
fffc
fffc
fffc
0618
0638
0ef8
fff0
ffe0
ff80
1c00
1c00
1c00
ENDCHAR
STARTCHAR CircleMinus
ENCODING 158
SWIDTH 600 0
DWIDTH 19 0
BBX 20 20 0 -1
BITMAP
01f800
07fe00
0fff00
1f0f80
3c03c0
7801e0
7000e0
7000e0
e00070
fffff0
fffff0
fffff0
e00070
7000e0
7000e0
3801c0
3e07c0
1fff80
07fe00
01f800
ENDCHAR
STARTCHAR CircleDot
ENCODING 159
SWIDTH 600 0
DWIDTH 19 0
BBX 19 20 0 -1
BITMAP
01f000
0ffe00
1fff00
3e0f80
7803c0
7001c0
7001c0
e0e0e0
e1f0e0
e1f0e0
e1f0e0
e0e0e0
f001e0
7001c0
7803c0
3c0780
3e0f80
1fff00
07fc00
01f000
ENDCHAR
STARTCHAR EqualParallel
ENCODING 160
SWIDTH 600 0
DWIDTH 19 0
BBX 19 18 0 -2
BITMAP
071c00
071c00
071c00
071c00
ffffe0
ffffe0
ffffe0
071c00
071c00
071c00
071c00
ffffe0
ffffe0
ffffe0
071c00
071c00
071c00
071c00
ENDCHAR
STARTCHAR MinusPlus
ENCODING 161
SWIDTH 600 0
DWIDTH 19 0
BBX 13 16 3 0
BITMAP
fff8
fff8
fff8
0700
0700
0700
0700
0700
fff8
fff8
fff8
0700
0700
0700
0700
0700
ENDCHAR
STARTCHAR RTack
ENCODING 162
SWIDTH 600 0
DWIDTH 19 0
BBX 10 13 5 1
BITMAP
e000
e000
e000
e000
e000
ffc0
ffc0
ffc0
e000
e000
e000
e000
e000
ENDCHAR
STARTCHAR DblRTack
ENCODING 163
SWIDTH 600 0
DWIDTH 19 0
BBX 10 14 5 0
BITMAP
e000
e000
e000
ffc0
ffc0
ffc0
e000
e000
ffc0
ffc0
ffc0
e000
e000
e000
ENDCHAR
STARTCHAR LTack
ENCODING 164
SWIDTH 600 0
DWIDTH 19 0
BBX 11 13 4 1
BITMAP
00e0
00e0
00e0
00e0
00e0
ffe0
ffe0
ffe0
00e0
00e0
00e0
00e0
00e0
ENDCHAR
STARTCHAR DblLTack
ENCODING 165
SWIDTH 600 0
DWIDTH 19 0
BBX 11 14 4 0
BITMAP
00e0
00e0
00e0
ffe0
ffe0
ffe0
00e0
00e0
ffe0
ffe0
ffe0
00e0
00e0
00e0
ENDCHAR
STARTCHAR UpTee
ENCODING 166
SWIDTH 600 0
DWIDTH 19 0
BBX 13 11 3 1
BITMAP
0700
0700
0700
0700
0700
0700
0700
0700
fff8
fff8
fff8
ENDCHAR
STARTCHAR DownTee
ENCODING 167
SWIDTH 600 0
DWIDTH 19 0
BBX 13 11 3 1
BITMAP
fff8
fff8
fff8
0700
0700
0700
0700
0700
0700
0700
0700
ENDCHAR
STARTCHAR DownTeeLong
ENCODING 168
SWIDTH 600 0
DWIDTH 19 0
BBX 16 16 2 0
BITMAP
ffff
ffff
ffff
0380
0380
0380
0380
0380
0380
0380
0380
0380
0380
0380
0380
0380
ENDCHAR
STARTCHAR Between
ENCODING 169
SWIDTH 600 0
DWIDTH 19 0
BBX 7 24 6 -5
BITMAP
6c
7c
38
10
38
38
6c
6c
ee
ee
ee
ee
ee
ee
ee
6c
6c
7c
38
10
38
38
6c
6c
ENDCHAR
STARTCHAR VertTilde
ENCODING 170
SWIDTH 600 0
DWIDTH 19 0
BBX 5 18 7 -2
BITMAP
40
e0
f0
70
78
38
38
38
78
70
70
e0
e0
e0
f0
78
70
30
ENDCHAR
STARTCHAR HorizHourglass
ENCODING 171
SWIDTH 600 0
DWIDTH 19 0
BBX 16 13 2 0
BITMAP
8001
c003
f00f
f83f
fe7f
cff3
c3c3
cff3
fe7f
f81f
f00f
c003
8001
ENDCHAR
STARTCHAR RightAngle
ENCODING 172
SWIDTH 600 0
DWIDTH 19 0
BBX 14 15 3 0
BITMAP
e000
e000
e000
e000
e000
e000
e000
ff80
ff80
e180
e180
e180
fffc
fffc
fffc
ENDCHAR
STARTCHAR MeasuredAngle
ENCODING 173
SWIDTH 600 0
DWIDTH 19 0
BBX 16 15 1 0
BITMAP
0380
0700
0700
0700
0e00
0e00
0e00
1f00
1d80
3980
38c0
3040
7fff
7fff
ffff
ENDCHAR
STARTCHAR SphericalAngle
ENCODING 174
SWIDTH 600 0
DWIDTH 19 0
BBX 14 18 2 -2
BITMAP
0004
000c
003c
007c
01f0
03e0
0fb0
3e30
fc30
7c30
1e30
0fb0
03e0
01f0
007c
003c
000c
0004
ENDCHAR
STARTCHAR Diameter
ENCODING 175
SWIDTH 600 0
DWIDTH 19 0
BBX 19 19 0 0
BITMAP
01f080
07fcc0
1fffe0
3e0f80
380780
700fc0
701dc0
e038e0
e070e0
e0e0e0
e1c0e0
e380e0
7701c0
7e01c0
3c0380
3e0f80
ffff00
67fc00
21f000
ENDCHAR
STARTCHAR Mho
ENCODING 176
SWIDTH 600 0
DWIDTH 19 0
BBX 17 19 1 -1
BITMAP
fe3f80
fe3f80
fe3f80
063000
1e3c00
380e00
700700
700700
e00380
e00380
e00380
e00380
e00380
f00780
780f00
7c1f00
3ffe00
1ffc00
07f000
ENDCHAR
STARTCHAR NotExists
ENCODING 177
SWIDTH 600 0
DWIDTH 19 0
BBX 16 27 1 -5
BITMAP
001c
0038
0038
0038
ffff
ffff
ffff
00e7
00e7
00c7
01c7
01c7
0fff
0fff
0fff
0707
0707
0707
0e07
7fff
7fff
7fff
1c00
1800
3800
3800
3000
ENDCHAR
STARTCHAR CapDigamma
ENCODING 178
SWIDTH 600 0
DWIDTH 19 0
BBX 15 18 2 0
BITMAP
fffe
fffe
fffe
380e
380e
380e
380e
3fe0
3fe0
3fe0
38e0
38e0
3800
3800
3800
ffc0
ffc0
ffc0
ENDCHAR
STARTCHAR CapStigma
ENCODING 179
SWIDTH 600 0
DWIDTH 19 0
BBX 17 23 2 -5
BITMAP
00ff80
07ff80
0fff80
1f0000
3c0000
780000
700000
f00000
e00000
e00000
e00000
e00000
e00000
f00000
7e0000
3fe000
1ff000
00f800
003800
007800
1ff800
1ff000
1fc000
ENDCHAR
STARTCHAR CapKoppa
ENCODING 180
SWIDTH 600 0
DWIDTH 19 0
BBX 15 19 2 0
BITMAP
07c0
1ff0
3ff8
783c
701c
e00e
e00e
e00e
e00e
e38e
739c
7bbc
3ff8
1ff0
0380
0380
0380
0380
0380
ENDCHAR
STARTCHAR CapSampi
ENCODING 181
SWIDTH 600 0
DWIDTH 19 0
BBX 18 19 0 0
BITMAP
03f000
0ffc00
1ffe00
1e0f00
081f80
003b80
0073c0
00e7c0
01cfc0
039dc0
03b9c0
0771c0
0e61c0
1ce380
39c780
738f00
f77e00
6e7c00
267000
ENDCHAR
STARTCHAR CurlyEpsilon
ENCODING 182
SWIDTH 600 0
DWIDTH 19 0
BBX 13 15 3 0
BITMAP
07c0
1ff8
3ff8
7830
7000
7000
3f80
3f80
7f80
f000
e010
f070
7ff8
7fe0
1f80
ENDCHAR
STARTCHAR FinalSigma
ENCODING 183
SWIDTH 600 0
DWIDTH 19 0
BBX 17 20 1 -5
BITMAP
01f800
07fe00
0fff00
1e0f00
1c0780
380380
380380
380380
700380
700780
700700
7c1f00
fffe00
eff800
e7e000
e00000
f00000
fffc00
7ffc00
3ffc00
ENDCHAR
STARTCHAR Digamma
ENCODING 184
SWIDTH 600 0
DWIDTH 19 0
BBX 16 19 2 -5
BITMAP
03ff
07ff
0ffe
0e00
1c00
1c00
1c00
1ff0
3ff0
3ff0
3800
3800
3000
7000
7000
7000
7000
6000
e000
ENDCHAR
STARTCHAR Stigma
ENCODING 185
SWIDTH 600 0
DWIDTH 19 0
BBX 14 19 3 -5
BITMAP
03fc
1ffc
3ffc
7c00
7000
f000
e000
e000
e000
f000
7c00
3f80
1fe0
03f0
0070
0070
3ff0
3fe0
3f80
ENDCHAR
STARTCHAR Koppa
ENCODING 186
SWIDTH 600 0
DWIDTH 19 0
BBX 16 20 2 -5
BITMAP
03f0
0ffc
1ffe
3c1e
780f
7007
e007
e007
e007
e007
e00e
f01e
783c
3ff8
1ff0
0780
0700
0700
0700
0700
ENDCHAR
STARTCHAR Sampi
ENCODING 187
SWIDTH 600 0
DWIDTH 19 0
BBX 15 15 2 0
BITMAP
0fc0
3ff0
7ff8
f83c
61fc
4fde
3e1e
38fe
07fe
1f1c
1c3c
0078
0ff0
07e0
0780
ENDCHAR
STARTCHAR Bet
ENCODING 188
SWIDTH 600 0
DWIDTH 19 0
BBX 16 18 1 0
BITMAP
7ffc
7ffc
7ffc
0070
0070
0070
0070
0070
0070
0070
0070
0070
0070
0070
0070
ffff
ffff
ffff
ENDCHAR
STARTCHAR Gimel
ENCODING 189
SWIDTH 600 0
DWIDTH 19 0
BBX 13 18 3 0
BITMAP
3e00
3f00
3f80
0380
01c0
01c0
01c0
01c0
00e0
00e0
00e0
00e0
0070
00f0
0ff0
fff0
fe38
6038
ENDCHAR
STARTCHAR Dalet
ENCODING 190
SWIDTH 600 0
DWIDTH 19 0
BBX 16 18 1 0
BITMAP
ffff
ffff
ffff
0038
0038
0038
0038
0038
0038
0038
0038
0038
0038
0038
0038
0038
0038
0038
ENDCHAR
STARTCHAR Aleph
ENCODING 191
SWIDTH 600 0
DWIDTH 19 0
BBX 17 15 1 -1
BITMAP
3c0700
7e0e00
7f1e00
673c00
03b800
03f000
01e000
03c000
07e000
0ee000
1e7000
1c7300
387f80
703f00
801e00
ENDCHAR
STARTCHAR CapYAcute
ENCODING 192
SWIDTH 600 0
DWIDTH 19 0
BBX 18 25 1 0
BITMAP
007c00
00f000
00e000
01c000
038000
000000
000000
ff1fc0
ff1fc0
ff1fc0
3c0e00
1c1e00
1e1c00
0f3800
077000
07f000
03e000
01c000
01c000
01c000
01c000
01c000
1ffc00
1ffc00
1ffc00
ENDCHAR
STARTCHAR YAcute
ENCODING 193
SWIDTH 600 0
DWIDTH 19 0
BBX 19 26 0 -5
BITMAP
003e00
007800
00f000
00e000
01c000
000000
000000
fe0fe0
fe0fe0
fe0fe0
3c0780
1c0700
1e0e00
0e0e00
071c00
073c00
03b800
03f000
01f000
01e000
01c000
03c000
038000
ffe000
ffe000
ffe000
ENDCHAR
STARTCHAR CapEth
ENCODING 194
SWIDTH 600 0
DWIDTH 19 0
BBX 18 18 1 0
BITMAP
fff800
fffe00
ffff00
1c0f80
1c0380
1c03c0
1c01c0
ffc1c0
ffc1c0
ffc1c0
1c01c0
1c01c0
1c0380
1c0780
1c0f00
ffff00
fffe00
fff800
ENDCHAR
STARTCHAR Eth
ENCODING 195
SWIDTH 600 0
DWIDTH 19 0
BBX 15 21 2 -1
BITMAP
0604
0fbc
03fe
0fe0
3ff0
0870
0038
07dc
1ffc
3ffc
783e
f01e
e00e
e00e
e00e
e00e
f01c
783c
3ff8
1ff0
07c0
ENDCHAR
STARTCHAR CapThorn
ENCODING 196
SWIDTH 600 0
DWIDTH 19 0
BBX 16 18 2 0
BITMAP
fe00
fe00
fe00
3ff0
3ffc
3ffe
381f
3807
3807
3807
380f
3ffe
3ff8
3800
3800
ffc0
ffc0
ffc0
ENDCHAR
STARTCHAR Thorn
ENCODING 197
SWIDTH 600 0
DWIDTH 19 0
BBX 18 25 0 -5
BITMAP
fc0000
fc0000
fc0000
1c0000
1c0000
1cf800
1ffe00
1fff00
1f0f80
1e0380
1c01c0
1c01c0
1c01c0
1c01c0
1c03c0
1e0380
1f0f80
1fff00
1dfe00
1cf800
1c0000
1c0000
ffc000
ffc000
ffc000
ENDCHAR
STARTCHAR CapLSlash
ENCODING 198
SWIDTH 600 0
DWIDTH 19 0
BBX 17 18 1 0
BITMAP
7fe000
7fe000
7fe000
0e0000
0e2000
0e7000
0fe000
0fc000
0f0000
1e0380
7e0380
fe0380
6e0380
0e0380
0e0380
7fff80
7fff80
7fff80
ENDCHAR
STARTCHAR LSlash
ENCODING 199
SWIDTH 600 0
DWIDTH 19 0
BBX 13 20 3 0
BITMAP
7f00
ff00
ff00
0700
0700
0720
0770
07e0
07c0
0780
1f00
3f00
7f00
2700
0700
0700
0700
fff8
fff8
fff8
ENDCHAR
STARTCHAR DownQuestion
ENCODING 200
SWIDTH 600 0
DWIDTH 19 0
BBX 13 19 3 -5
BITMAP
0380
0fc0
0fc0
0fc0
0380
0000
0000
0380
0380
1f80
7f80
7800
e000
e038
e038
f838
7ff8
3ff8
0fc0
ENDCHAR
STARTCHAR Cent
ENCODING 201
SWIDTH 600 0
DWIDTH 19 0
BBX 14 22 2 -2
BITMAP
0380
0380
0380
0380
07dc
1ff8
3ff8
7838
f01c
e018
e000
e000
f008
783c
7ffc
3ff8
0fe0
0380
0380
0380
0380
0380
ENDCHAR
STARTCHAR nbspace
ENCODING 202
SWIDTH 263 0
DWIDTH 8 0
BBX 0 0 0 0
BITMAP
ENDCHAR
STARTCHAR Sterling
ENCODING 203
SWIDTH 600 0
DWIDTH 19 0
BBX 14 20 3 0
BITMAP
07c0
0fe0
1ff0
3c78
3838
3800
3800
3800
ffe0
ffe0
ffe0
1c00
1c00
1c00
1c00
1c00
3800
7ffc
7ff8
30e0
ENDCHAR
STARTCHAR DownExclamation
ENCODING 204
SWIDTH 600 0
DWIDTH 19 0
BBX 6 20 7 -5
BITMAP
78
fc
fc
fc
78
00
00
30
30
78
78
78
78
78
78
78
78
78
78
78
ENDCHAR
STARTCHAR Section
ENCODING 205
SWIDTH 600 0
DWIDTH 19 0
BBX 13 21 3 -2
BITMAP
1ff0
3ff0
7ff0
7070
7870
3e00
7f00
f780
e3e0
f1f0
7878
3c38
1f38
0ff8
03f0
71e0
70f0
7070
7ff0
7fe0
7fc0
ENDCHAR
STARTCHAR Paragraph
ENCODING 206
SWIDTH 600 0
DWIDTH 19 0
BBX 17 21 1 -2
BITMAP
0fff80
3fff80
79ce00
f1ce00
e1ce00
e1ce00
e1ce00
f1ce00
71ce00
3fce00
1fce00
01ce00
01ce00
01ce00
01ce00
01ce00
01ce00
01ce00
01ce00
3fcf80
3fcf80
ENDCHAR
STARTCHAR Yen
ENCODING 207
SWIDTH 600 0
DWIDTH 19 0
BBX 17 19 1 0
BITMAP
fe3f80
fe3f80
fe3f80
1c1c00
1e3c00
0e3800
077000
03e000
3ffe00
3ffe00
01c000
01c000
3ffe00
3ffe00
01c000
01c000
0ff800
0ff800
0ff800
ENDCHAR
STARTCHAR Micro
ENCODING 208
SWIDTH 600 0
DWIDTH 19 0
BBX 14 19 4 -5
BITMAP
e070
e070
e070
e070
e070
e070
e070
e070
e070
e0f0
e1f0
fffc
ff3c
fe1c
e000
e000
e000
e000
e000
ENDCHAR
STARTCHAR HBar
ENCODING 209
SWIDTH 600 0
DWIDTH 19 0
BBX 18 20 0 0
BITMAP
0fc400
0f9800
1ff800
03f000
07c000
1f1e00
1f7f00
37ff80
27e380
078380
070380
0e0380
0e0700
0e0700
0e0700
1c0700
1c0e00
7f3fc0
ff3f80
ff3f80
ENDCHAR
STARTCHAR DotlessI
ENCODING 210
SWIDTH 600 0
DWIDTH 19 0
BBX 13 14 3 0
BITMAP
7f00
7f00
7f00
0700
0700
0700
0700
0700
0700
0700
0700
fff8
fff8
fff8
ENDCHAR
STARTCHAR ItalDotlessI
ENCODING 211
SWIDTH 600 0
DWIDTH 19 0
BBX 14 14 2 0
BITMAP
0fe0
0fe0
0fe0
00c0
01c0
01c0
01c0
0180
0380
0380
0380
7ffc
7ffc
fff8
ENDCHAR
STARTCHAR DotlessJ
ENCODING 212
SWIDTH 600 0
DWIDTH 19 0
BBX 11 19 3 -5
BITMAP
7fe0
7fe0
7fe0
00e0
00e0
00e0
00e0
00e0
00e0
00e0
00e0
00e0
00e0
00e0
00e0
81e0
ffc0
ff80
7e00
ENDCHAR
STARTCHAR ItalDotlessJ
ENCODING 213
SWIDTH 600 0
DWIDTH 19 0
BBX 16 19 0 -5
BITMAP
07ff
07fe
0ffe
000e
000e
000e
001c
001c
001c
001c
0038
0038
0038
0038
0070
40f0
7fe0
ffc0
7f00
ENDCHAR
STARTCHAR Dagger
ENCODING 214
SWIDTH 600 0
DWIDTH 19 0
BBX 11 20 4 -2
BITMAP
0e00
0e00
0e00
0e00
0e00
ffe0
ffe0
ffe0
0e00
0e00
0e00
0e00
0e00
0e00
0e00
0e00
0e00
0e00
0e00
0e00
ENDCHAR
STARTCHAR DoubleDagger
ENCODING 215
SWIDTH 600 0
DWIDTH 19 0
BBX 11 20 4 -2
BITMAP
0e00
0e00
0e00
0e00
0e00
ffe0
ffe0
ffe0
0e00
0e00
0e00
0e00
ffe0
ffe0
ffe0
0e00
0e00
0e00
0e00
0e00
ENDCHAR
STARTCHAR Degree
ENCODING 216
SWIDTH 600 0
DWIDTH 19 0
BBX 11 11 4 12
BITMAP
1f00
3f80
7fc0
f1e0
e0e0
e0e0
e0e0
f1e0
7fc0
3f80
1f00
ENDCHAR
STARTCHAR Flat
ENCODING 217
SWIDTH 600 0
DWIDTH 19 0
BBX 14 20 3 0
BITMAP
e000
e000
e000
e000
e000
efc0
fff0
fff8
f078
e03c
e01c
e01c
e01c
e01c
e038
e078
e1f0
ffe0
ff80
f800
ENDCHAR
STARTCHAR Natural
ENCODING 218
SWIDTH 600 0
DWIDTH 19 0
BBX 12 24 4 -5
BITMAP
e000
e000
e000
e000
e000
e030
e7f0
fff0
ff70
e070
e070
e070
e070
e070
e070
e1f0
fff0
fff0
f870
0070
0070
0070
0070
0070
ENDCHAR
STARTCHAR Sharp
ENCODING 219
SWIDTH 600 0
DWIDTH 19 0
BBX 16 24 2 -5
BITMAP
0038
1c38
1c38
1c38
1c38
1c3f
1fff
fffc
fe38
9c38
1c38
1c38
1c38
1c38
1c38
1c3f
1fff
ffff
ffb8
dc38
1c38
1c38
1c38
1c00
ENDCHAR
STARTCHAR QuestionBox
ENCODING 220
SWIDTH 868 0
DWIDTH 28 0
BBX 24 24 2 0
BITMAP
ffffff
ffffff
ffffff
e00007
e03e07
e0ff07
e0f387
e1e387
e1e387
e00707
e00f07
e01e07
e01c07
e01c07
e01c07
e00007
e00007
e01c07
e01c07
e01c07
e00007
ffffff
ffffff
ffffff
ENDCHAR
STARTCHAR ErrorIndicator
ENCODING 221
SWIDTH 868 0
DWIDTH 28 0
BBX 24 16 2 0
BITMAP
ffffff
ffffff
c00003
c00003
c01803
c03c03
c06603
c0e303
c1c383
c18183
c300c3
c60063
c80013
c00003
ffffff
ffffff
ENDCHAR
STARTCHAR Angstrom
ENCODING 222
SWIDTH 600 0
DWIDTH 19 0
BBX 17 20 1 0
BITMAP
01c000
03e000
063000
063000
063000
03e000
01c000
03e000
036000
077000
063800
0e3800
0e3c00
1ffc00
1ffe00
3ffe00
380f00
780f00
700780
f00380
ENDCHAR
STARTCHAR LamdaSlash
ENCODING 223
SWIDTH 600 0
DWIDTH 19 0
BBX 19 20 0 0
BITMAP
078000
07e040
07f180
007f00
003c00
007c00
01dc00
011c00
003c00
003c00
007c00
00ec00
01ec00
01ce00
038e00
070e00
0f0700
fe07e0
fc03e0
f801e0
ENDCHAR
STARTCHAR SolidSquare
ENCODING 224
SWIDTH 600 0
DWIDTH 19 0
BBX 18 18 1 0
BITMAP
ffffc0
ffffc0
ffffc0
ffffc0
ffffc0
ffffc0
ffffc0
ffffc0
ffffc0
ffffc0
ffffc0
ffffc0
ffffc0
ffffc0
ffffc0
ffffc0
ffffc0
ffffc0
ENDCHAR
STARTCHAR Square
ENCODING 225
SWIDTH 600 0
DWIDTH 19 0
BBX 17 18 1 0
BITMAP
ffff80
ffff80
c00180
c00180
c00180
c00180
c00180
c00180
c00180
c00180
c00180
c00180
c00180
c00180
c00180
c00180
ffff80
ffff80
ENDCHAR
STARTCHAR MedSolidSquare
ENCODING 226
SWIDTH 600 0
DWIDTH 19 0
BBX 13 12 3 3
BITMAP
fff8
fff8
fff8
fff8
fff8
fff8
fff8
fff8
fff8
fff8
fff8
fff8
ENDCHAR
STARTCHAR MedEmptySquare
ENCODING 227
SWIDTH 600 0
DWIDTH 19 0
BBX 13 12 3 3
BITMAP
fff8
fff8
c018
c018
c018
c018
c018
c018
c018
c018
fff8
fff8
ENDCHAR
STARTCHAR SmallSolidSquare
ENCODING 228
SWIDTH 600 0
DWIDTH 19 0
BBX 8 8 6 6
BITMAP
ff
ff
ff
ff
ff
ff
ff
ff
ENDCHAR
STARTCHAR SmallEmptySquare
ENCODING 229
SWIDTH 600 0
DWIDTH 19 0
BBX 8 8 6 6
BITMAP
ff
ff
c3
c3
c3
c3
ff
ff
ENDCHAR
STARTCHAR SolidCircle
ENCODING 230
SWIDTH 600 0
DWIDTH 19 0
BBX 19 18 0 0
BITMAP
03f800
0ffe00
1fff00
3fff80
7fffc0
7fffc0
7fffc0
ffffe0
ffffe0
ffffe0
ffffe0
7fffc0
7fffc0
7fffc0
3fff80
1fff00
0ffe00
03f800
ENDCHAR
STARTCHAR Circle
ENCODING 231
SWIDTH 600 0
DWIDTH 19 0
BBX 19 19 0 0
BITMAP
03f800
0ffe00
1e0f00
380380
7001c0
6000c0
e000e0
c00060
c00060
c00060
c00060
c00060
e000e0
6000c0
7001c0
380380
1e0f00
0ffe00
03f800
ENDCHAR
STARTCHAR Bullet
ENCODING 232
SWIDTH 600 0
DWIDTH 19 0
BBX 13 12 3 3
BITMAP
0f80
3fe0
7ff0
7ff0
fff8
fff8
fff8
fff8
7ff0
7ff0
3fe0
0f80
ENDCHAR
STARTCHAR SmallCircle
ENCODING 233
SWIDTH 600 0
DWIDTH 19 0
BBX 14 14 3 2
BITMAP
0fc0
3fe0
7870
6018
e01c
c00c
c00c
c00c
c00c
e01c
6018
7870
3fe0
0fc0
ENDCHAR
STARTCHAR Dot
ENCODING 234
SWIDTH 600 0
DWIDTH 19 0
BBX 8 8 6 6
BITMAP
3c
7e
ff
ff
ff
ff
7e
3c
ENDCHAR
STARTCHAR OpenDot
ENCODING 235
SWIDTH 600 0
DWIDTH 19 0
BBX 11 11 4 4
BITMAP
1f00
7fc0
71c0
e0e0
c060
c060
c060
e0e0
71c0
7fc0
1f00
ENDCHAR
STARTCHAR MedSolidDiamond
ENCODING 236
SWIDTH 600 0
DWIDTH 19 0
BBX 18 18 0 0
BITMAP
004000
00c000
01e000
03f000
07f800
0ffc00
1ffe00
3fff00
ffffc0
7fff80
3fff00
1ffe00
0ffc00
07f800
03f000
01e000
00c000
004000
ENDCHAR
STARTCHAR MedEmptyDiamond
ENCODING 237
SWIDTH 600 0
DWIDTH 19 0
BBX 19 18 0 0
BITMAP
004000
00e000
01f000
03b800
071c00
0e0e00
1c0700
380380
f001e0
7001c0
380380
1c0700
0e0e00
071c00
03b800
01f000
00e000
004000
ENDCHAR
STARTCHAR SmallSolidDiamond
ENCODING 238
SWIDTH 600 0
DWIDTH 19 0
BBX 13 13 3 3
BITMAP
0200
0700
0f80
1fc0
3fe0
7ff0
fff8
7ff0
3fe0
1fc0
0f80
0700
0200
ENDCHAR
STARTCHAR SmallEmptyDiamond
ENCODING 239
SWIDTH 600 0
DWIDTH 19 0
BBX 14 14 3 2
BITMAP
0100
0300
0780
0fc0
1ce0
3870
7038
f03c
3870
1ce0
0fc0
0780
0300
0100
ENDCHAR
STARTCHAR SolidRectangle
ENCODING 240
SWIDTH 600 0
DWIDTH 19 0
BBX 12 18 4 0
BITMAP
fff0
fff0
fff0
fff0
fff0
fff0
fff0
fff0
fff0
fff0
fff0
fff0
fff0
fff0
fff0
fff0
fff0
fff0
ENDCHAR
STARTCHAR Rectangle
ENCODING 241
SWIDTH 600 0
DWIDTH 19 0
BBX 11 18 4 0
BITMAP
ffe0
ffe0
c060
c060
c060
c060
c060
c060
c060
c060
c060
c060
c060
c060
c060
c060
ffe0
ffe0
ENDCHAR
STARTCHAR SolidUpTriangle
ENCODING 242
SWIDTH 600 0
DWIDTH 19 0
BBX 18 18 1 0
BITMAP
004000
00c000
00c000
01e000
01e000
03f000
03f000
07f800
07f800
0ffc00
0ffc00
1ffe00
1ffe00
3fff00
3fff00
7fff80
7fff80
ffffc0
ENDCHAR
STARTCHAR UpTriangle
ENCODING 243
SWIDTH 600 0
DWIDTH 19 0
BBX 19 18 0 0
BITMAP
004000
004000
00e000
00e000
01f000
01b000
03b800
031800
071c00
060c00
0e0e00
0c0600
1c0700
180300
380380
300180
7fffc0
ffffe0
ENDCHAR
STARTCHAR SolidDownTriangle
ENCODING 244
SWIDTH 600 0
DWIDTH 19 0
BBX 18 18 1 0
BITMAP
ffffc0
7fff80
7fff80
3fff00
3fff00
1ffe00
1ffe00
0ffc00
0ffc00
07f800
07f800
03f000
03f000
01e000
01e000
00c000
00c000
004000
ENDCHAR
STARTCHAR DownTriangle
ENCODING 245
SWIDTH 600 0
DWIDTH 19 0
BBX 19 18 0 0
BITMAP
ffffe0
7fffc0
300180
380380
180300
1c0700
0c0600
0e0e00
060c00
071c00
031800
03b800
01b000
01f000
00e000
00e000
004000
004000
ENDCHAR
STARTCHAR SolidDiamond
ENCODING 246
SWIDTH 600 0
DWIDTH 19 0
BBX 12 18 4 0
BITMAP
0200
0600
0f00
0f00
1f80
3fc0
3fc0
7fe0
fff0
7fe0
7fe0
3fc0
3fc0
1f80
0f00
0f00
0600
0200
ENDCHAR
STARTCHAR Star6
ENCODING 247
SWIDTH 600 0
DWIDTH 19 0
BBX 18 20 0 -2
BITMAP
004000
00c000
00c000
01e000
01e000
03f000
ffffc0
7fff80
3fff00
3fff00
1ffe00
3fff00
3fff00
7fff80
ffffc0
03f000
01e000
00c000
00c000
004000
ENDCHAR
STARTCHAR Star
ENCODING 248
SWIDTH 600 0
DWIDTH 19 0
BBX 17 18 1 0
BITMAP
008000
008000
008000
008000
01c000
01c000
01c000
ffff80
3ffe00
1ffc00
07f000
07f000
07f000
0f7800
0e3800
0c1800
100c00
100200
ENDCHAR
STARTCHAR Bullet3
ENCODING 249
SWIDTH 600 0
DWIDTH 19 0
BBX 17 18 1 0
BITMAP
ffff80
ffff80
ffff80
ffff80
ffff80
ffff80
ffff80
ffff80
ffff80
ffff80
fffe80
fffc80
fff880
fff080
ffe080
ffc080
ff8080
ffff80
ENDCHAR
STARTCHAR Bullet4
ENCODING 250
SWIDTH 600 0
DWIDTH 19 0
BBX 17 18 1 0
BITMAP
ffff80
ffff80
ffff80
ffff80
ffff80
ffff80
ffff80
ffff80
ffff80
ffff80
ffff80
ffff80
fff080
fff080
fff080
fff080
fff080
ffff80
ENDCHAR
STARTCHAR Euler
ENCODING 251
SWIDTH 600 0
DWIDTH 19 0
BBX 13 20 2 0
BITMAP
07c0
1fe0
3ff8
7870
7010
7000
7000
7800
3f00
1f00
7f00
7000
e000
e000
e000
f000
7830
7ff8
3ff0
0fc0
ENDCHAR
STARTCHAR ImagJ
ENCODING 252
SWIDTH 600 0
DWIDTH 19 0
BBX 14 26 1 -5
BITMAP
00f0
00f0
00f0
00f0
00f0
0000
0000
7ffc
7ffc
7ffc
039c
039c
039c
039c
039c
039c
039c
039c
039c
039c
039c
03bc
03f8
7ff0
ffe0
7f80
ENDCHAR
STARTCHAR DoubleGamma
ENCODING 253
SWIDTH 696 0
DWIDTH 22 0
BBX 22 20 1 -5
BITMAP
1fffec
ff00f0
ffc1f8
1df7c0
0e7f00
073e00
039e00
01ce00
01ce00
03c700
03e700
076700
076700
0e6700
0e6f00
0e6e00
0efe00
0ffc00
07f800
03e000
ENDCHAR
STARTCHAR DoublePi
ENCODING 254
SWIDTH 823 0
DWIDTH 26 0
BBX 25 14 1 0
BITMAP
3fffff80
3fffff80
3fffff00
03387000
03386000
0730e000
0770e000
0670e000
0ee0e000
1dc0e000
3fc0e000
7f007000
fe007800
70002000
ENDCHAR
STARTCHAR DoubleScriptCapD
ENCODING 255
SWIDTH 746 0
DWIDTH 24 0
BBX 23 18 0 0
BITMAP
01ff00
1fffe0
7ffff0
fe00f8
e0203c
04e01c
1ce00e
1ce00e
1ce00e
1ce00e
1ce00e
1ce00e
1ce01c
1ce03c
1ce078
7ffff8
7ffff0
7fffc0
ENDCHAR
ENDFONT
